{
    "asset" : {
        "generator" : "Khronos glTF Blender I/O v0.9.4",
        "version" : "2.0"
    },
    "extensionsUsed" : [
        "KHR_materials_unlit"
    ],
    "extensionsRequired" : [
        "KHR_materials_unlit"
    ],
    "scene" : 0,
    "scenes" : [
        {
            "name" : "Scene",
            "nodes" : [
                0,
                1,
                2,
                3,
                4,
                5,
                6
            ]
        }
    ],
    "nodes" : [
        {
            "name" : "Eyes.Smile",
            "mesh" : 0
        },
        {
            "name" : "Eyebrows.Smile",
            "mesh" : 1
        },
        {
            "name" : "Eyes.Regular",
            "mesh" : 2
        },
        {
            "name" : "Eyebrows.Regular",
            "mesh" : 3
        },
        {
            "name" : "Face",
            "mesh" : 4
        },
        {
            "name" : "Lamp",
            "translation" : [
                4.076245307922363,
                5.903861999511719,
                -1.0054539442062378
            ],
            "rotation" : [
                0.16907575726509094,
                0.7558803558349609,
                -0.27217137813568115,
                0.570947527885437
            ]
        },
        {
            "name" : "Camera",
            "translation" : [
                0,
                0.49480223655700684,
                19.133480072021484
            ],
            "rotation" : [
                0.7071067690849304,
                0,
                0,
                0.7071067690849304
            ]
        }
    ],
    "animations" : [
        {
            "name" : "BlinkAction.001",
            "samplers" : [
                {
                    "input" : 20,
                    "output" : 21,
                    "interpolation" : "CUBICSPLINE"
                }
            ],
            "channels" : [
                {
                    "sampler" : 0,
                    "target" : {
                        "path" : "scale",
                        "node" : 0
                    }
                }
            ]
        },
        {
            "name" : "BlinkAction",
            "samplers" : [
                {
                    "input" : 20,
                    "output" : 22,
                    "interpolation" : "CUBICSPLINE"
                }
            ],
            "channels" : [
                {
                    "sampler" : 0,
                    "target" : {
                        "path" : "scale",
                        "node" : 2
                    }
                }
            ]
        }
    ],
    "materials" : [
        {
            "name" : "FaceMaterial",
            "pbrMetallicRoughness" : {
                "baseColorTexture" : {
                    "texCoord" : 0,
                    "index" : 0
                }
            },
            "extensions" : {
                "KHR_materials_unlit" : {}
            }
        }
    ],
    "meshes" : [
        {
            "name" : "Icosphere.004",
            "primitives" : [
                {
                    "material" : 0,
                    "indices" : 3,
                    "attributes" : {
                        "POSITION" : 0,
                        "TEXCOORD_0" : 1,
                        "NORMAL" : 2
                    }
                }
            ]
        },
        {
            "name" : "Icosphere.003",
            "primitives" : [
                {
                    "material" : 0,
                    "indices" : 7,
                    "attributes" : {
                        "POSITION" : 4,
                        "TEXCOORD_0" : 5,
                        "NORMAL" : 6
                    }
                }
            ]
        },
        {
            "name" : "Icosphere.002",
            "primitives" : [
                {
                    "material" : 0,
                    "indices" : 11,
                    "attributes" : {
                        "POSITION" : 8,
                        "TEXCOORD_0" : 9,
                        "NORMAL" : 10
                    }
                }
            ]
        },
        {
            "name" : "Icosphere.001",
            "primitives" : [
                {
                    "material" : 0,
                    "indices" : 15,
                    "attributes" : {
                        "POSITION" : 12,
                        "TEXCOORD_0" : 13,
                        "NORMAL" : 14
                    }
                }
            ]
        },
        {
            "name" : "Icosphere",
            "primitives" : [
                {
                    "material" : 0,
                    "indices" : 19,
                    "attributes" : {
                        "POSITION" : 16,
                        "TEXCOORD_0" : 17,
                        "NORMAL" : 18
                    }
                }
            ]
        }
    ],
    "textures" : [
        {
            "sampler" : 0,
            "source" : 0
        }
    ],
    "images" : [
        {
            "bufferView" : 4,
            "name" : "face.png",
            "mimeType" : "image/png"
        }
    ],
    "accessors" : [
        {
            "bufferView" : 0,
            "count" : 216,
            "componentType" : 5126,
            "type" : "VEC3",
            "min" : [
                -1.1126093864440918,
                0.19721122086048126,
                1.0312526226043701
            ],
            "max" : [
                1.1086926460266113,
                0.7027930617332458,
                1.205884337425232
            ]
        },
        {
            "bufferView" : 1,
            "type" : "VEC2",
            "count" : 216,
            "componentType" : 5126
        },
        {
            "bufferView" : 2,
            "type" : "VEC3",
            "count" : 216,
            "componentType" : 5126
        },
        {
            "bufferView" : 3,
            "type" : "SCALAR",
            "count" : 408,
            "componentType" : 5123
        },
        {
            "bufferView" : 5,
            "count" : 208,
            "componentType" : 5126,
            "type" : "VEC3",
            "min" : [
                -1.5709640979766846,
                0.8950099349021912,
                0.8446112871170044
            ],
            "max" : [
                1.5641567707061768,
                1.4808369874954224,
                1.1465604305267334
            ]
        },
        {
            "bufferView" : 6,
            "type" : "VEC2",
            "count" : 208,
            "componentType" : 5126
        },
        {
            "bufferView" : 7,
            "type" : "VEC3",
            "count" : 208,
            "componentType" : 5126
        },
        {
            "bufferView" : 8,
            "type" : "SCALAR",
            "count" : 312,
            "componentType" : 5123
        },
        {
            "bufferView" : 9,
            "count" : 192,
            "componentType" : 5126,
            "type" : "VEC3",
            "min" : [
                -1.1126093864440918,
                -0.058836907148361206,
                1.0312526226043701
            ],
            "max" : [
                1.1086926460266113,
                0.7027930617332458,
                1.205884337425232
            ]
        },
        {
            "bufferView" : 10,
            "type" : "VEC2",
            "count" : 192,
            "componentType" : 5126
        },
        {
            "bufferView" : 11,
            "type" : "VEC3",
            "count" : 192,
            "componentType" : 5126
        },
        {
            "bufferView" : 12,
            "type" : "SCALAR",
            "count" : 360,
            "componentType" : 5123
        },
        {
            "bufferView" : 13,
            "count" : 144,
            "componentType" : 5126,
            "type" : "VEC3",
            "min" : [
                -1.642836570739746,
                0.7802594304084778,
                0.8446112871170044
            ],
            "max" : [
                1.6386358737945557,
                1.1577337980270386,
                1.1465604305267334
            ]
        },
        {
            "bufferView" : 14,
            "type" : "VEC2",
            "count" : 144,
            "componentType" : 5126
        },
        {
            "bufferView" : 15,
            "type" : "VEC3",
            "count" : 144,
            "componentType" : 5126
        },
        {
            "bufferView" : 16,
            "type" : "SCALAR",
            "count" : 216,
            "componentType" : 5123
        },
        {
            "bufferView" : 17,
            "count" : 812,
            "componentType" : 5126,
            "type" : "VEC3",
            "min" : [
                -2.576221227645874,
                -2.9320013523101807,
                -2.341125011444092
            ],
            "max" : [
                2.556698799133301,
                5.310420513153076,
                1.642401933670044
            ]
        },
        {
            "bufferView" : 18,
            "type" : "VEC2",
            "count" : 812,
            "componentType" : 5126
        },
        {
            "bufferView" : 19,
            "type" : "VEC3",
            "count" : 812,
            "componentType" : 5126
        },
        {
            "bufferView" : 20,
            "type" : "SCALAR",
            "count" : 1158,
            "componentType" : 5123
        },
        {
            "bufferView" : 21,
            "count" : 3,
            "componentType" : 5126,
            "type" : "SCALAR",
            "min" : [
                0
            ],
            "max" : [
                0.4166666666666667
            ]
        },
        {
            "bufferView" : 22,
            "type" : "VEC3",
            "count" : 9,
            "componentType" : 5126
        },
        {
            "bufferView" : 23,
            "type" : "VEC3",
            "count" : 9,
            "componentType" : 5126
        }
    ],
    "bufferViews" : [
        {
            "byteLength" : 2592,
            "byteOffset" : 0,
            "buffer" : 0
        },
        {
            "byteLength" : 1728,
            "byteOffset" : 2592,
            "buffer" : 0
        },
        {
            "byteLength" : 2592,
            "byteOffset" : 4320,
            "buffer" : 0
        },
        {
            "byteLength" : 816,
            "byteOffset" : 6912,
            "buffer" : 0
        },
        {
            "byteLength" : 209,
            "byteOffset" : 7728,
            "buffer" : 0
        },
        {
            "byteLength" : 2496,
            "byteOffset" : 7940,
            "buffer" : 0
        },
        {
            "byteLength" : 1664,
            "byteOffset" : 10436,
            "buffer" : 0
        },
        {
            "byteLength" : 2496,
            "byteOffset" : 12100,
            "buffer" : 0
        },
        {
            "byteLength" : 624,
            "byteOffset" : 14596,
            "buffer" : 0
        },
        {
            "byteLength" : 2304,
            "byteOffset" : 15220,
            "buffer" : 0
        },
        {
            "byteLength" : 1536,
            "byteOffset" : 17524,
            "buffer" : 0
        },
        {
            "byteLength" : 2304,
            "byteOffset" : 19060,
            "buffer" : 0
        },
        {
            "byteLength" : 720,
            "byteOffset" : 21364,
            "buffer" : 0
        },
        {
            "byteLength" : 1728,
            "byteOffset" : 22084,
            "buffer" : 0
        },
        {
            "byteLength" : 1152,
            "byteOffset" : 23812,
            "buffer" : 0
        },
        {
            "byteLength" : 1728,
            "byteOffset" : 24964,
            "buffer" : 0
        },
        {
            "byteLength" : 432,
            "byteOffset" : 26692,
            "buffer" : 0
        },
        {
            "byteLength" : 9744,
            "byteOffset" : 27124,
            "buffer" : 0
        },
        {
            "byteLength" : 6496,
            "byteOffset" : 36868,
            "buffer" : 0
        },
        {
            "byteLength" : 9744,
            "byteOffset" : 43364,
            "buffer" : 0
        },
        {
            "byteLength" : 2316,
            "byteOffset" : 53108,
            "buffer" : 0
        },
        {
            "byteLength" : 12,
            "byteOffset" : 55424,
            "buffer" : 0
        },
        {
            "byteLength" : 108,
            "byteOffset" : 55436,
            "buffer" : 0
        },
        {
            "byteLength" : 108,
            "byteOffset" : 55544,
            "buffer" : 0
        }
    ],
    "samplers" : [
        {
            "minFilter" : 9986,
            "magFilter" : 9729,
            "wrapS" : 10497,
            "wrapT" : 10497
        }
    ],
    "buffers" : [
        {
            "byteLength" : 55652,
            "uri" : "data:application/octet-stream;base64,"
        }
    ]
}
