{
    "asset" : {
        "version" : "2.0",
        "generator" : "Khronos glTF Blender I/O v0.9.4"
    },
    "extensionsUsed" : [
        "KHR_materials_unlit"
    ],
    "extensionsRequired" : [
        "KHR_materials_unlit"
    ],
    "scene" : 0,
    "scenes" : [
        {
            "nodes" : [
                0,
                1,
                2,
                3,
                4
            ],
            "name" : "Scene"
        }
    ],
    "nodes" : [
        {
            "mesh" : 0,
            "name" : "Eyes"
        },
        {
            "mesh" : 1,
            "name" : "Eyebrows"
        },
        {
            "mesh" : 2,
            "name" : "Face"
        },
        {
            "name" : "Lamp",
            "rotation" : [
                0.16907575726509094,
                0.7558803558349609,
                -0.27217137813568115,
                0.570947527885437
            ],
            "translation" : [
                4.076245307922363,
                5.903861999511719,
                -1.0054539442062378
            ]
        },
        {
            "name" : "Camera",
            "rotation" : [
                0.7071067690849304,
                0,
                0,
                0.7071067690849304
            ],
            "translation" : [
                0,
                0.49480223655700684,
                19.133480072021484
            ]
        }
    ],
    "animations" : [
        {
            "samplers" : [
                {
                    "input" : 12,
                    "interpolation" : "CUBICSPLINE",
                    "output" : 13
                }
            ],
            "channels" : [
                {
                    "sampler" : 0,
                    "target" : {
                        "path" : "scale",
                        "node" : 0
                    }
                }
            ],
            "name" : "BlinkAction"
        }
    ],
    "materials" : [
        {
            "extensions" : {
                "KHR_materials_unlit" : {}
            },
            "name" : "FaceMaterial",
            "pbrMetallicRoughness" : {
                "baseColorTexture" : {
                    "index" : 0,
                    "texCoord" : 0
                }
            }
        }
    ],
    "meshes" : [
        {
            "primitives" : [
                {
                    "material" : 0,
                    "attributes" : {
                        "POSITION" : 0,
                        "TEXCOORD_0" : 1,
                        "NORMAL" : 2
                    },
                    "indices" : 3
                }
            ],
            "name" : "Icosphere.002"
        },
        {
            "primitives" : [
                {
                    "material" : 0,
                    "attributes" : {
                        "POSITION" : 4,
                        "TEXCOORD_0" : 5,
                        "NORMAL" : 6
                    },
                    "indices" : 7
                }
            ],
            "name" : "Icosphere.001"
        },
        {
            "primitives" : [
                {
                    "material" : 0,
                    "attributes" : {
                        "POSITION" : 8,
                        "TEXCOORD_0" : 9,
                        "NORMAL" : 10
                    },
                    "indices" : 11
                }
            ],
            "name" : "Icosphere"
        }
    ],
    "textures" : [
        {
            "sampler" : 0,
            "source" : 0
        }
    ],
    "images" : [
        {
            "bufferView" : 4,
            "mimeType" : "image/png",
            "name" : "face.png"
        }
    ],
    "accessors" : [
        {
            "bufferView" : 0,
            "type" : "VEC3",
            "count" : 192,
            "componentType" : 5126,
            "min" : [
                -1.1126093864440918,
                -0.058836907148361206,
                1.0312526226043701
            ],
            "max" : [
                1.1086926460266113,
                0.7027930617332458,
                1.205884337425232
            ]
        },
        {
            "componentType" : 5126,
            "bufferView" : 1,
            "type" : "VEC2",
            "count" : 192
        },
        {
            "componentType" : 5126,
            "bufferView" : 2,
            "type" : "VEC3",
            "count" : 192
        },
        {
            "componentType" : 5123,
            "bufferView" : 3,
            "type" : "SCALAR",
            "count" : 360
        },
        {
            "bufferView" : 5,
            "type" : "VEC3",
            "count" : 144,
            "componentType" : 5126,
            "min" : [
                -1.642836570739746,
                0.7802594304084778,
                0.8446112871170044
            ],
            "max" : [
                1.6386358737945557,
                1.1577337980270386,
                1.1465604305267334
            ]
        },
        {
            "componentType" : 5126,
            "bufferView" : 6,
            "type" : "VEC2",
            "count" : 144
        },
        {
            "componentType" : 5126,
            "bufferView" : 7,
            "type" : "VEC3",
            "count" : 144
        },
        {
            "componentType" : 5123,
            "bufferView" : 8,
            "type" : "SCALAR",
            "count" : 216
        },
        {
            "bufferView" : 9,
            "type" : "VEC3",
            "count" : 748,
            "componentType" : 5126,
            "min" : [
                -2.576221227645874,
                -2.9320013523101807,
                -2.341125011444092
            ],
            "max" : [
                2.556698799133301,
                5.310420513153076,
                1.642401933670044
            ]
        },
        {
            "componentType" : 5126,
            "bufferView" : 10,
            "type" : "VEC2",
            "count" : 748
        },
        {
            "componentType" : 5126,
            "bufferView" : 11,
            "type" : "VEC3",
            "count" : 748
        },
        {
            "componentType" : 5123,
            "bufferView" : 12,
            "type" : "SCALAR",
            "count" : 1062
        },
        {
            "bufferView" : 13,
            "type" : "SCALAR",
            "count" : 3,
            "componentType" : 5126,
            "min" : [
                0
            ],
            "max" : [
                0.4166666666666667
            ]
        },
        {
            "componentType" : 5126,
            "bufferView" : 14,
            "type" : "VEC3",
            "count" : 9
        }
    ],
    "bufferViews" : [
        {
            "byteOffset" : 0,
            "buffer" : 0,
            "byteLength" : 2304
        },
        {
            "byteOffset" : 2304,
            "buffer" : 0,
            "byteLength" : 1536
        },
        {
            "byteOffset" : 3840,
            "buffer" : 0,
            "byteLength" : 2304
        },
        {
            "byteOffset" : 6144,
            "buffer" : 0,
            "byteLength" : 720
        },
        {
            "byteOffset" : 6864,
            "buffer" : 0,
            "byteLength" : 189
        },
        {
            "byteOffset" : 7056,
            "buffer" : 0,
            "byteLength" : 1728
        },
        {
            "byteOffset" : 8784,
            "buffer" : 0,
            "byteLength" : 1152
        },
        {
            "byteOffset" : 9936,
            "buffer" : 0,
            "byteLength" : 1728
        },
        {
            "byteOffset" : 11664,
            "buffer" : 0,
            "byteLength" : 432
        },
        {
            "byteOffset" : 12096,
            "buffer" : 0,
            "byteLength" : 8976
        },
        {
            "byteOffset" : 21072,
            "buffer" : 0,
            "byteLength" : 5984
        },
        {
            "byteOffset" : 27056,
            "buffer" : 0,
            "byteLength" : 8976
        },
        {
            "byteOffset" : 36032,
            "buffer" : 0,
            "byteLength" : 2124
        },
        {
            "byteOffset" : 38156,
            "buffer" : 0,
            "byteLength" : 12
        },
        {
            "byteOffset" : 38168,
            "buffer" : 0,
            "byteLength" : 108
        }
    ],
    "samplers" : [
        {
            "magFilter" : 9729,
            "wrapS" : 10497,
            "wrapT" : 10497,
            "minFilter" : 9986
        }
    ],
    "buffers" : [
        {
            "uri" : "data:application/octet-stream;base64,",
            "byteLength" : 38276
        }
    ]
}
