{
    "asset" : {
        "version" : "2.0",
        "generator" : "Khronos glTF Blender I/O v0.9.4"
    },
    "extensionsUsed" : [
        "KHR_materials_unlit"
    ],
    "extensionsRequired" : [
        "KHR_materials_unlit"
    ],
    "scene" : 0,
    "scenes" : [
        {
            "name" : "Scene",
            "nodes" : [
                0
            ]
        }
    ],
    "nodes" : [
        {
            "name" : "Mask",
            "mesh" : 0
        }
    ],
    "materials" : [
        {
            "name" : "Material",
            "extensions" : {
                "KHR_materials_unlit" : {}
            },
            "pbrMetallicRoughness" : {
                "baseColorTexture" : {
                    "texCoord" : 0,
                    "index" : 0
                }
            }
        }
    ],
    "meshes" : [
        {
            "primitives" : [
                {
                    "indices" : 3,
                    "attributes" : {
                        "POSITION" : 0,
                        "TEXCOORD_0" : 1,
                        "NORMAL" : 2
                    },
                    "material" : 0
                }
            ],
            "name" : "Icosphere"
        }
    ],
    "textures" : [
        {
            "sampler" : 0,
            "source" : 0
        }
    ],
    "images" : [
        {
            "name" : "mask.jpg",
            "bufferView" : 4,
            "mimeType" : "image/jpeg"
        }
    ],
    "accessors" : [
        {
            "min" : [
                -3.796116590499878,
                -4.588161468505859,
                -0.9999999403953552
            ],
            "componentType" : 5126,
            "count" : 938,
            "type" : "VEC3",
            "max" : [
                4.475106239318848,
                5.195192337036133,
                1.361914873123169
            ],
            "bufferView" : 0
        },
        {
            "count" : 938,
            "type" : "VEC2",
            "componentType" : 5126,
            "bufferView" : 1
        },
        {
            "count" : 938,
            "type" : "VEC3",
            "componentType" : 5126,
            "bufferView" : 2
        },
        {
            "count" : 1398,
            "type" : "SCALAR",
            "componentType" : 5123,
            "bufferView" : 3
        }
    ],
    "bufferViews" : [
        {
            "byteOffset" : 0,
            "byteLength" : 11256,
            "buffer" : 0
        },
        {
            "byteOffset" : 11256,
            "byteLength" : 7504,
            "buffer" : 0
        },
        {
            "byteOffset" : 18760,
            "byteLength" : 11256,
            "buffer" : 0
        },
        {
            "byteOffset" : 30016,
            "byteLength" : 2796,
            "buffer" : 0
        },
        {
            "byteOffset" : 32812,
            "byteLength" : 604976,
            "buffer" : 0
        }
    ],
    "samplers" : [
        {
            "magFilter" : 9729,
            "wrapT" : 10497,
            "minFilter" : 9986,
            "wrapS" : 10497
        }
    ],
    "buffers" : [
        {
            "uri" : "data:application/octet-stream;base64,",
            "byteLength" : 637788
        }
    ]
}
