{
    "asset" : {
        "generator" : "Khronos glTF Blender I/O v0.9.4",
        "version" : "2.0"
    },
    "extensionsUsed" : [
        "KHR_materials_unlit"
    ],
    "extensionsRequired" : [
        "KHR_materials_unlit"
    ],
    "scene" : 0,
    "scenes" : [
        {
            "nodes" : [
                0,
                1,
                2,
                3,
                4
            ],
            "name" : "Scene"
        }
    ],
    "nodes" : [
        {
            "rotation" : [
                0.7071067690849304,
                0,
                0,
                0.7071067690849304
            ],
            "mesh" : 0,
            "name" : "water_buffalo"
        },
        {
            "rotation" : [
                0.3583679795265198,
                0,
                0,
                0.9335803985595703
            ],
            "mesh" : 1,
            "name" : "water_buffalo.right_eyelid",
            "translation" : [
                -1.3060855865478516,
                0.8303290605545044,
                1.0515679121017456
            ]
        },
        {
            "rotation" : [
                0.02748897112905979,
                0.004896531347185373,
                0.17529834806919098,
                0.9841193556785583
            ],
            "mesh" : 2,
            "name" : "water_buffalo.left_eyelid",
            "translation" : [
                1.1290770769119263,
                0.697886049747467,
                1.256442904472351
            ]
        },
        {
            "rotation" : [
                0.16907575726509094,
                0.7558803558349609,
                -0.27217137813568115,
                0.570947527885437
            ],
            "name" : "Lamp",
            "translation" : [
                4.076245307922363,
                5.903861999511719,
                -1.0054539442062378
            ]
        },
        {
            "rotation" : [
                0.7071067690849304,
                0,
                0,
                0.7071067690849304
            ],
            "name" : "Camera",
            "translation" : [
                0,
                0,
                12.490671157836914
            ]
        }
    ],
    "animations" : [
        {
            "name" : "water_buffalo.blink_right",
            "channels" : [
                {
                    "sampler" : 0,
                    "target" : {
                        "node" : 1,
                        "path" : "rotation"
                    }
                },
                {
                    "sampler" : 1,
                    "target" : {
                        "node" : 1,
                        "path" : "translation"
                    }
                }
            ],
            "samplers" : [
                {
                    "output" : 13,
                    "interpolation" : "CUBICSPLINE",
                    "input" : 12
                },
                {
                    "output" : 14,
                    "interpolation" : "CUBICSPLINE",
                    "input" : 12
                }
            ]
        },
        {
            "name" : "water_buffalo.blink_left",
            "channels" : [
                {
                    "sampler" : 0,
                    "target" : {
                        "node" : 2,
                        "path" : "rotation"
                    }
                },
                {
                    "sampler" : 1,
                    "target" : {
                        "node" : 2,
                        "path" : "translation"
                    }
                }
            ],
            "samplers" : [
                {
                    "output" : 15,
                    "interpolation" : "CUBICSPLINE",
                    "input" : 12
                },
                {
                    "output" : 16,
                    "interpolation" : "CUBICSPLINE",
                    "input" : 12
                }
            ]
        }
    ],
    "materials" : [
        {
            "extensions" : {
                "KHR_materials_unlit" : {}
            },
            "name" : "Material.001",
            "pbrMetallicRoughness" : {
                "baseColorTexture" : {
                    "index" : 0,
                    "texCoord" : 0
                }
            }
        }
    ],
    "meshes" : [
        {
            "primitives" : [
                {
                    "material" : 0,
                    "attributes" : {
                        "NORMAL" : 0,
                        "POSITION" : 1,
                        "TEXCOORD_0" : 2
                    },
                    "indices" : 3
                }
            ],
            "name" : "water_buffalo"
        },
        {
            "primitives" : [
                {
                    "material" : 0,
                    "attributes" : {
                        "NORMAL" : 4,
                        "POSITION" : 5,
                        "TEXCOORD_0" : 6
                    },
                    "indices" : 7
                }
            ],
            "name" : "water_buffalo.001"
        },
        {
            "primitives" : [
                {
                    "material" : 0,
                    "attributes" : {
                        "NORMAL" : 8,
                        "POSITION" : 9,
                        "TEXCOORD_0" : 10
                    },
                    "indices" : 11
                }
            ],
            "name" : "water_buffalo.002"
        }
    ],
    "textures" : [
        {
            "source" : 0,
            "sampler" : 0
        }
    ],
    "images" : [
        {
            "name" : "buffalo.jpg",
            "mimeType" : "image/jpeg",
            "bufferView" : 4
        }
    ],
    "accessors" : [
        {
            "type" : "VEC3",
            "bufferView" : 0,
            "count" : 4682,
            "componentType" : 5126
        },
        {
            "count" : 4682,
            "min" : [
                -5.130269527435303,
                -2.4508814811706543,
                -4.502294540405273
            ],
            "type" : "VEC3",
            "max" : [
                5.0590901374816895,
                4.04279088973999,
                2.753016471862793
            ],
            "bufferView" : 1,
            "componentType" : 5126
        },
        {
            "type" : "VEC2",
            "bufferView" : 2,
            "count" : 4682,
            "componentType" : 5126
        },
        {
            "type" : "SCALAR",
            "bufferView" : 3,
            "count" : 18198,
            "componentType" : 5123
        },
        {
            "type" : "VEC3",
            "bufferView" : 5,
            "count" : 49,
            "componentType" : 5126
        },
        {
            "count" : 49,
            "min" : [
                -0.24889585375785828,
                -0.3757079839706421,
                -0.30023786425590515
            ],
            "type" : "VEC3",
            "max" : [
                0.304550439119339,
                0.2466973066329956,
                0.2841445207595825
            ],
            "bufferView" : 6,
            "componentType" : 5126
        },
        {
            "type" : "VEC2",
            "bufferView" : 7,
            "count" : 49,
            "componentType" : 5126
        },
        {
            "type" : "SCALAR",
            "bufferView" : 8,
            "count" : 195,
            "componentType" : 5123
        },
        {
            "type" : "VEC3",
            "bufferView" : 9,
            "count" : 47,
            "componentType" : 5126
        },
        {
            "count" : 47,
            "min" : [
                -0.2695326805114746,
                -0.3594698905944824,
                -0.23663535714149475
            ],
            "type" : "VEC3",
            "max" : [
                0.18846845626831055,
                0.24804186820983887,
                0.25800734758377075
            ],
            "bufferView" : 10,
            "componentType" : 5126
        },
        {
            "type" : "VEC2",
            "bufferView" : 11,
            "count" : 47,
            "componentType" : 5126
        },
        {
            "type" : "SCALAR",
            "bufferView" : 12,
            "count" : 195,
            "componentType" : 5123
        },
        {
            "count" : 5,
            "min" : [
                0.125
            ],
            "type" : "SCALAR",
            "max" : [
                0.4166666666666667
            ],
            "bufferView" : 13,
            "componentType" : 5126
        },
        {
            "type" : "VEC4",
            "bufferView" : 14,
            "count" : 15,
            "componentType" : 5126
        },
        {
            "type" : "VEC3",
            "bufferView" : 15,
            "count" : 15,
            "componentType" : 5126
        },
        {
            "type" : "VEC4",
            "bufferView" : 16,
            "count" : 15,
            "componentType" : 5126
        },
        {
            "type" : "VEC3",
            "bufferView" : 17,
            "count" : 15,
            "componentType" : 5126
        }
    ],
    "bufferViews" : [
        {
            "buffer" : 0,
            "byteLength" : 56184,
            "byteOffset" : 0
        },
        {
            "buffer" : 0,
            "byteLength" : 56184,
            "byteOffset" : 56184
        },
        {
            "buffer" : 0,
            "byteLength" : 37456,
            "byteOffset" : 112368
        },
        {
            "buffer" : 0,
            "byteLength" : 36396,
            "byteOffset" : 149824
        },
        {
            "buffer" : 0,
            "byteLength" : 793352,
            "byteOffset" : 186220
        },
        {
            "buffer" : 0,
            "byteLength" : 588,
            "byteOffset" : 979572
        },
        {
            "buffer" : 0,
            "byteLength" : 588,
            "byteOffset" : 980160
        },
        {
            "buffer" : 0,
            "byteLength" : 392,
            "byteOffset" : 980748
        },
        {
            "buffer" : 0,
            "byteLength" : 390,
            "byteOffset" : 981140
        },
        {
            "buffer" : 0,
            "byteLength" : 564,
            "byteOffset" : 981532
        },
        {
            "buffer" : 0,
            "byteLength" : 564,
            "byteOffset" : 982096
        },
        {
            "buffer" : 0,
            "byteLength" : 376,
            "byteOffset" : 982660
        },
        {
            "buffer" : 0,
            "byteLength" : 390,
            "byteOffset" : 983036
        },
        {
            "buffer" : 0,
            "byteLength" : 20,
            "byteOffset" : 983428
        },
        {
            "buffer" : 0,
            "byteLength" : 240,
            "byteOffset" : 983448
        },
        {
            "buffer" : 0,
            "byteLength" : 180,
            "byteOffset" : 983688
        },
        {
            "buffer" : 0,
            "byteLength" : 240,
            "byteOffset" : 983868
        },
        {
            "buffer" : 0,
            "byteLength" : 180,
            "byteOffset" : 984108
        }
    ],
    "samplers" : [
        {
            "minFilter" : 9986,
            "wrapT" : 10497,
            "magFilter" : 9729,
            "wrapS" : 10497
        }
    ],
    "buffers" : [
        {
            "byteLength" : 984288,
            "uri" : "data:application/octet-stream;base64,"
        }
    ]
}
